<svg xmlns="http://www.w3.org/2000/svg" width="61" height="61" viewBox="0 0 61 61" fill="none">
  <path fill-rule="evenodd" clip-rule="evenodd" d="M60.663 0.468384H0.663025V60.4684H60.663V0.468384ZM21.0307 47.8299L16.4393 50.6087C17.7684 53.428 20.3864 55.7635 24.8969 55.7635C29.8915 55.7635 33.3147 53.1053 33.3147 47.2653V28.0142H27.6764V47.1856C27.6764 50.0047 26.508 50.7294 24.6553 50.7294C22.7224 50.7294 21.9166 49.4005 21.0307 47.8299ZM40.9683 47.3464L36.3773 50.0045C38.0285 53.267 41.4115 55.7642 46.6472 55.7642C52.0038 55.7642 55.991 52.9855 55.991 47.9103C55.991 43.1985 53.2926 41.1043 48.4997 39.05L47.0901 38.446C44.6737 37.3989 43.6265 36.7138 43.6265 35.0223C43.6265 33.6531 44.6737 32.6059 46.3251 32.6059C47.9362 32.6059 48.9829 33.2905 49.9497 35.0223L54.3401 32.2028C52.4876 28.9405 49.9099 27.6917 46.3254 27.6917C41.2908 27.6917 38.0688 30.9139 38.0688 35.143C38.0688 39.7344 40.7672 41.9094 44.8352 43.6407L46.2445 44.2454C48.8222 45.3728 50.3526 46.0576 50.3526 47.9907C50.3526 49.6018 48.8629 50.7699 46.5265 50.7699C43.7477 50.7699 42.1769 49.3201 40.9683 47.3464Z" fill="#FF3C00"/>
</svg>