<svg xmlns="http://www.w3.org/2000/svg" width="61" height="61" viewBox="0 0 61 61" fill="none">
<path fill-rule="evenodd" clip-rule="evenodd" d="M46.7788 2.62498C46.9923 1.97697 46.7592 1.35798 46.3502 0.967505C45.9476 0.583135 45.3603 0.392932 44.7578 0.496208L21.9242 4.40918C21.5621 4.47119 21.215 4.6395 20.946 4.90875C20.6749 5.18003 20.4976 5.54132 20.4706 5.94061L20.1456 10.7416L2.14179 7.55551C0.863108 7.32938 -0.10153 8.68255 0.541829 9.79985L29.2856 59.7032C29.8764 60.7283 31.3713 60.7222 31.9533 59.6922L60.1384 9.79516C60.7706 8.67576 59.801 7.33276 58.5266 7.56272L44.2956 10.1308L46.7788 2.62498ZM42.1895 10.5108L42.1681 10.5807L42.1691 10.581L40.7793 15.3506C40.6209 15.8948 41.0987 16.4126 41.6606 16.3054L47.6378 15.1633C48.2619 15.0442 48.7524 15.6852 48.4678 16.2475L31.4719 49.8279L31.1643 50.2984C30.7039 51.003 29.5997 50.5549 29.7713 49.7332L32.5131 36.5949C32.6306 36.0316 32.0964 35.5487 31.5403 35.7158L27.9535 36.7949C27.3982 36.9618 26.8644 36.4802 26.9807 35.9175L28.7058 27.5532C28.8176 27.0124 28.3267 26.5385 27.7832 26.6627L21.9761 27.9893C21.478 28.1031 21.0095 27.711 21.0395 27.2056L21.9783 11.5062L22.3356 6.22788L44.8868 2.3633L42.1914 10.5105L42.1895 10.5108Z" fill="#FF3C00"/>
</svg>